# xmcd
#
# Track frame offsets:
# 150
# 17700
# 33549
# 48950
# 61773
# 71063
# 87438
# 98446
# 107928
# 124285
#
# Disc length: 2248 seconds
#
# Revision: 0
# Processed by: cddbd v1.4PL0 Copyright (c) Steve Scherf et al.
# Submitted via: Audion 2.6.0 (http://www.panic.com/audion/)
#
DISCID=8208c60a
DTITLE=Ernesto Cortzar - Cortazar Plays Sinatra
DYEAR=1900
DGENRE=
TTITLE0=New York, NewYork
TTITLE1=I Left my Hear in San Francisco
TTITLE2=As Time Goes By
TTITLE3=F;y Me to the Moon
TTITLE4=I've Got You Under y Skin
TTITLE5=Stardust
TTITLE6=Begin the Beguine
TTITLE7=Night and ay
TTITLE8=Red Roses for a Blue Lady
TTITLE9=Around the World
EXTD=
EXTT0=
EXTT1=
EXTT2=
EXTT3=
EXTT4=
EXTT5=
EXTT6=
EXTT7=
EXTT8=
EXTT9=
PLAYORDER=
